# xmcd database file
#
# Track frame offsets:
# 150
# 34111
# 59936
# 70750
# 87823
# 107253
# 133584
# 169419
# 193810
# 217227
#
# Disc length: 3109 seconds
#
# Revision: 0
# Processed by: cddbd v1.5.2PL0 Copyright (c) Steve Scherf et al.
# Submitted via: CD-Runner 2008.20
#
DISCID=970c230a
DTITLE=Various Artist - 97 LAV - Blues On The Mall 2008
DYEAR=2008
DGENRE=Blues
TTITLE0=Slow It Down - Mike Zito
TTITLE1=Shade Of Blue - Jimmy Dillon
TTITLE2=Love Me Again - Anna Popovic
TTITLE3=Long Way Home - Anthony Gomes
TTITLE4=Candy Sweet - Lil' Ed
TTITLE5=Gone Too Long - Walter Trout
TTITLE6=She's A No Good Woman =Water Trout feat. Sammy Avila
TTITLE7=Ok. I'll Play The Blues - Deanna Bogert
TTITLE8=Hit Me On the Hip - Ronnie Baker Brooks
TTITLE9=Ain't No Blues Like Michigan Blues - Tomas Ezperanza &
EXTD=Mackenzie Harvest Music Group  (MHM049]\n
EXTT0=
EXTT1=
EXTT2=
EXTT3=
EXTT4=
EXTT5=
EXTT6=
EXTT7=
EXTT8=
EXTT9=The Blues Experience Featuring Ralson Bowles
PLAYORDER=
